<svg height="512" viewBox="0 0 60 60" width="512" xmlns="http://www.w3.org/2000/svg"><g id="Page-1" fill="none" fill-rule="evenodd"><g id="017---Virtual-Private-Network" fill-rule="nonzero"><g id="Icons" transform="translate(1 1)"><path id="Shape" d="m27 34v7h-22c-1.65484823.004833-2.99516701 1.3451518-3 3v9h4v-8h21v8h4v-8h21v8h4v-9c-.004833-1.6548482-1.3451518-2.995167-3-3h-22v-7z" fill="#ffdc00"/><path id="Shape" d="m47 1 .0000241 21h-36.0000241v-21c.0015928-.55162365.4483764-.99840721 1-1h34c.0604471.00171624.1206504.00840549.18.02h.02c.1587084.03273759.3066002.10496384.43.21.2355595.18580859.3721121.46998555.37.77z" fill="#00695c"/><path id="Shape" d="m44 1 .0000241 21h-33.0000241v-21c.0015928-.55162365.4483764-.99840721 1-1h31c.0604471.00171624.1206504.00840549.18.02h.02c.1587084.03273759.3066002.10496384.43.21.2355595.18580859.3721121.46998555.37.77z" fill="#009688"/><path id="Shape" d="m51 32h-44l4-10h36z" fill="#0377bc"/><path id="Shape" d="m48 32h-41l4-10h33z" fill="#02a9f4"/><path id="Shape" d="m25.8712 28h6.2576c.4492135.0000135.8432905.2995692.9635.7324l.9077 3.2676h-10l.9077-3.2676c.1202095-.4328308.5142865-.7323865.9635-.7324z" fill="#0377bc"/><path id="Shape" d="m51 32v3c-.0015928.5516236-.4483764.9984072-1 1h-42c-.55162365-.0015928-.99840721-.4483764-1-1v-3z" fill="#283593"/><path id="Shape" d="m48 32v3c-.0015928.5516236-.4483764.9984072-1 1h-39c-.55162365-.0015928-.99840721-.4483764-1-1v-3z" fill="#3f51b5"/><g fill="#0377bc"><path id="Shape" d="m8 54c.00029188 1.0609554-.42104175 2.0785407-1.17125054 2.8287495-.7502088.7502088-1.76779405 1.1715424-2.82874946 1.1712505-.51528644.0039656-1.02587622-.0981523-1.5-.3-1.51043415-.6074395-2.5-2.0719969-2.5-3.7s.98956585-3.0925605 2.5-3.7c.47412378-.2018477.98471356-.3039656 1.5-.3 1.06095541-.0002919 2.07854066.4210417 2.82874946 1.1712505.75020879.7502088 1.17154242 1.7677941 1.17125054 2.8287495z"/><path id="Shape" d="m58 54c.0002919 1.0609554-.4210417 2.0785407-1.1712505 2.8287495s-1.7677941 1.1715424-2.8287495 1.1712505c-.5152864.0039656-1.0258762-.0981523-1.5-.3-1.5104342-.6074395-2.5-2.0719969-2.5-3.7s.9895658-3.0925605 2.5-3.7c.4741238-.2018477.9847136-.3039656 1.5-.3 1.0609554-.0002919 2.0785407.4210417 2.8287495 1.1712505s1.1715424 1.7677941 1.1712505 2.8287495z"/><path id="Shape" d="m33 54c.0002919 1.0609554-.4210417 2.0785407-1.1712505 2.8287495s-1.7677941 1.1715424-2.8287495 1.1712505c-.5152864.0039656-1.0258762-.0981523-1.5-.3-1.5104342-.6074395-2.5-2.0719969-2.5-3.7s.9895658-3.0925605 2.5-3.7c.4741238-.2018477.9847136-.3039656 1.5-.3 1.0609554-.0002919 2.0785407.4210417 2.8287495 1.1712505s1.1715424 1.7677941 1.1712505 2.8287495z"/></g><ellipse id="Oval" cx="2.5" cy="54" fill="#02a9f4" rx="2.5" ry="3.7"/><ellipse id="Oval" cx="52.5" cy="54" fill="#02a9f4" rx="2.5" ry="3.7"/><ellipse id="Oval" cx="27.5" cy="54" fill="#02a9f4" rx="2.5" ry="3.7"/></g><g id="Layer_10" fill="#000"><path id="Shape" d="m20 19.0005c-.4303395-.000255-.8122558-.2757971-.9482-.6841l-4-12c-.1249985-.34191202-.0543138-.72474153.1845403-.99947265.2388541-.27473111.6081379-.39795552.9641082-.3217083.3559702.07624723.6423826.33991882.7477515.68838095l4 12c.10151.3049367.0503985.6400712-.1373946.9008861-.187793.2608149-.4894171.4155743-.8108054.4160139z"/><path id="Shape" d="m20 19.0005c-.3213883-.0004396-.6230124-.155199-.8108054-.4160139-.1877931-.2608149-.2389046-.5959494-.1373946-.9008861l4-12c.1053689-.34846213.3917813-.61213372.7477515-.68838095.3559703-.07624722.7252541.04697719.9641082.3217083.2388541.27473112.3095388.65756063.1845403.99947265l-4 12c-.1359442.4083029-.5178605.683845-.9482.6841z"/><path id="Shape" d="m27 19c-.5522847 0-1-.4477153-1-1v-12c0-.55228475.4477153-1 1-1s1 .44771525 1 1v12c0 .5522847-.4477153 1-1 1z"/><path id="Shape" d="m31 13h-4c-.5522847 0-1-.4477153-1-1v-6c0-.55228475.4477153-1 1-1h4c2.209139 0 4 1.790861 4 4s-1.790861 4-4 4zm-3-2h3c1.1045695 0 2-.8954305 2-2s-.8954305-2-2-2h-3z"/><path id="Shape" d="m37 19c-.5522847 0-1-.4477153-1-1v-12c0-.55228475.4477153-1 1-1s1 .44771525 1 1v12c0 .5522847-.4477153 1-1 1z"/><path id="Shape" d="m44 19c-.5522847 0-1-.4477153-1-1v-12c0-.55228475.4477153-1 1-1s1 .44771525 1 1v12c0 .5522847-.4477153 1-1 1z"/><path id="Shape" d="m44.001 19c-.3561008.000159-.6855258-.1887093-.8653-.4961l-7-12c-.2782963-.47733971-.1169397-1.08990371.3604-1.3682s1.0899037-.11693971 1.3682.3604l7 12c.1803905.309217.1817268.6912747.0035036 1.0017459-.1782232.3104713-.508815.5019887-.8668036.5021541z"/><path id="Shape" d="m53 52.54c-.5522847 0-1-.4477153-1-1v-4.54h-19v4.54c0 .5522847-.4477153 1-1 1s-1-.4477153-1-1v-5.54c0-.5522847.4477153-1 1-1h21c.5522847 0 1 .4477153 1 1v5.54c0 .5522847-.4477153 1-1 1z"/><path id="Shape" d="m3 52.54c-.55228475 0-1-.4477153-1-1v-6.54c.00231494-2.2081794 1.79182059-3.9976851 4-4h21v-4c0-.5522847.4477153-1 1-1s1 .4477153 1 1v5c0 .5522847-.4477153 1-1 1h-22c-1.10404407.0012675-1.99873253.8959559-2 2v6.54c0 .5522847-.44771525 1-1 1z"/><path id="Shape" d="m57 52.54c-.5522847 0-1-.4477153-1-1v-6.54c-.0012675-1.1040441-.8959559-1.9987325-2-2h-22c-.5522847 0-1-.4477153-1-1v-5c0-.5522847.4477153-1 1-1s1 .4477153 1 1v4h21c2.2081794.0023149 3.9976851 1.7918206 4 4v6.54c0 .5522847-.4477153 1-1 1z"/><path id="Shape" d="m28 52.54c-.5522847 0-1-.4477153-1-1v-4.54h-19v4.54c0 .5522847-.44771525 1-1 1s-1-.4477153-1-1v-5.54c0-.5522847.44771525-1 1-1h21c.5522847 0 1 .4477153 1 1v5.54c0 .5522847-.4477153 1-1 1z"/><path id="Shape" d="m52 34h-44c-.33191807.0001019-.6422574-.1644945-.82835145-.4393374s-.22368932-.6241122-.10034855-.9322626l4-10c.1520952-.3795428.5198165-.6283596.9287-.6284h36c.4088835.0000404.7766048.2488572.9287.6284l4 10c.1233408.3081504.0857455.6574197-.1003486.9322626-.186094.2748429-.4964333.4394393-.8283514.4393374zm-42.5234-2h41.0468l-3.2-8h-34.6466z"/><path id="Shape" d="m35 34h-10c-.3124347-.0002129-.6068443-.1463245-.7959585-.3950237s-.2512325-.5714483-.1679415-.8725763l.9073-3.2676c.2430666-.8641604 1.03001-1.4621345 1.9277-1.4648h6.2578c.897134.002384 1.6837466.5998143 1.9268 1.4634l.9082 3.269c.083291.301128.0211727.6238771-.1679415.8725763s-.4835238.3948108-.7959585.3950237zm-8.6846-2h7.3692l-.5557-2h-6.2578z"/><path id="Shape" d="m51 38h-42c-1.10404407-.0012675-1.99873253-.8959559-2-2v-3c.00000002-.5522847.44771526-1 1-1s.99999998.4477153 1 1v3h42v-3c0-.5522847.4477153-1 1-1s1 .4477153 1 1v3c-.0012675 1.1040441-.8959559 1.9987325-2 2z"/><path id="Shape" d="m48 24h-36c-.5522847 0-1-.4477153-1-1v-21c.0012675-1.10404407.8959559-1.99873253 2-2h34c1.1040441.00126747 1.9987325.89595593 2 2v21c0 .5522847-.4477153 1-1 1zm-35-2h34v-20h-34z"/><path id="Shape" d="m5 60c-2.76142375 0-5-2.2385763-5-5s2.23857625-5 5-5 5 2.2385763 5 5c-.00325114 2.760076-2.23992404 4.9967489-5 5zm0-8c-1.65685425 0-3 1.3431458-3 3s1.34314575 3 3 3 3-1.3431458 3-3c-.00181871-1.6561003-1.34389967-2.9981813-3-3z"/><path id="Shape" d="m55 60c-2.7614237 0-5-2.2385763-5-5s2.2385763-5 5-5 5 2.2385763 5 5c-.0032511 2.760076-2.239924 4.9967489-5 5zm0-8c-1.6568542 0-3 1.3431458-3 3s1.3431458 3 3 3 3-1.3431458 3-3c-.0018187-1.6561003-1.3438997-2.9981813-3-3z"/><path id="Shape" d="m30 60c-2.7614237 0-5-2.2385763-5-5s2.2385763-5 5-5 5 2.2385763 5 5c-.0032511 2.760076-2.239924 4.9967489-5 5zm0-8c-1.6568542 0-3 1.3431458-3 3s1.3431458 3 3 3 3-1.3431458 3-3c-.0018187-1.6561003-1.3438997-2.9981813-3-3z"/></g></g></g></svg>